<svg 
 xmlns="http://www.w3.org/2000/svg"
 xmlns:xlink="http://www.w3.org/1999/xlink"
 width="103px" height="103px">
<path fill-rule="evenodd"  stroke-width="3px" stroke="rgb(207, 207, 207)" fill="rgb(240, 243, 246)"
 d="M51.500,1.500 C79.114,1.500 101.500,23.885 101.500,51.500 C101.500,79.114 79.114,101.500 51.500,101.500 C23.886,101.500 1.500,79.114 1.500,51.500 C1.500,23.885 23.886,1.500 51.500,1.500 Z"/>
<path fill-rule="evenodd"  stroke-width="4px" stroke="rgb(54, 51, 50)" fill-opacity="0" fill="rgb(255, 255, 255)"
 d="M51.500,25.500 C65.859,25.500 77.500,37.140 77.500,51.500 C77.500,65.859 65.859,77.500 51.500,77.500 C37.140,77.500 25.500,65.859 25.500,51.500 C25.500,37.140 37.140,25.500 51.500,25.500 Z"/>
<path fill-rule="evenodd"  fill="rgb(54, 51, 50)"
 d="M63.499,53.500 L53.500,53.500 L53.500,63.500 C53.500,64.604 52.604,65.500 51.500,65.500 C50.395,65.500 49.499,64.604 49.499,63.500 L49.499,53.500 L39.500,53.500 C38.395,53.500 37.500,52.604 37.500,51.500 C37.500,50.395 38.395,49.500 39.500,49.500 L49.499,49.500 L49.499,39.500 C49.499,38.395 50.395,37.500 51.500,37.500 C52.604,37.500 53.500,38.395 53.500,39.500 L53.500,49.500 L63.499,49.500 C64.604,49.500 65.500,50.395 65.500,51.500 C65.500,52.604 64.604,53.500 63.499,53.500 Z"/>
</svg>
