<svg 
 xmlns="http://www.w3.org/2000/svg"
 xmlns:xlink="http://www.w3.org/1999/xlink"
 width="103px" height="103px">
<path fill-rule="evenodd"  stroke-width="3px" stroke="rgb(207, 207, 207)" fill="rgb(240, 243, 246)"
 d="M51.500,1.500 C79.114,1.500 101.500,23.885 101.500,51.500 C101.500,79.114 79.114,101.500 51.500,101.500 C23.885,101.500 1.500,79.114 1.500,51.500 C1.500,23.885 23.885,1.500 51.500,1.500 Z"/>
<path fill-rule="evenodd"  stroke-width="4px" stroke="rgb(54, 51, 50)" fill-opacity="0" fill="rgb(255, 255, 255)"
 d="M51.500,25.500 C65.859,25.500 77.500,37.140 77.500,51.500 C77.500,65.859 65.859,77.500 51.500,77.500 C37.140,77.500 25.500,65.859 25.500,51.500 C25.500,37.140 37.140,25.500 51.500,25.500 Z"/>
<path fill-rule="evenodd"  fill="rgb(54, 51, 50)"
 d="M42.499,43.500 C44.709,43.500 46.500,45.291 46.500,47.500 C46.500,49.709 44.709,51.500 42.499,51.500 C40.291,51.500 38.500,49.709 38.500,47.500 C38.500,45.291 40.291,43.500 42.499,43.500 Z"/>
<path fill-rule="evenodd"  fill="rgb(54, 51, 50)"
 d="M61.500,43.500 C63.709,43.500 65.500,45.291 65.500,47.500 C65.500,49.709 63.709,51.500 61.500,51.500 C59.290,51.500 57.500,49.709 57.500,47.500 C57.500,45.291 59.290,43.500 61.500,43.500 Z"/>
<path fill-rule="evenodd"  fill="rgb(54, 51, 50)"
 d="M45.500,55.500 C46.604,55.500 47.500,56.395 47.500,57.500 C47.500,58.604 46.604,59.500 45.500,59.500 C44.395,59.500 43.500,58.604 43.500,57.500 C43.500,56.395 44.395,55.500 45.500,55.500 Z"/>
<path fill-rule="evenodd"  fill="rgb(54, 51, 50)"
 d="M57.500,55.500 C58.604,55.500 59.500,56.395 59.500,57.500 C59.500,58.604 58.604,59.500 57.500,59.500 C56.395,59.500 55.500,58.604 55.500,57.500 C55.500,56.395 56.395,55.500 57.500,55.500 Z"/>
</svg>
