<svg 
 xmlns="http://www.w3.org/2000/svg"
 xmlns:xlink="http://www.w3.org/1999/xlink"
 width="103px" height="103px">
<path fill-rule="evenodd"  stroke-width="3px" stroke="rgb(207, 207, 207)" fill="rgb(240, 243, 246)"
 d="M51.500,1.500 C79.114,1.500 101.500,23.885 101.500,51.500 C101.500,79.114 79.114,101.500 51.500,101.500 C23.885,101.500 1.499,79.114 1.499,51.500 C1.499,23.885 23.885,1.500 51.500,1.500 Z"/>
<path fill-rule="evenodd"  stroke-width="4px" stroke="rgb(54, 51, 50)" fill-opacity="0" fill="rgb(247, 247, 248)"
 d="M28.500,32.500 L74.500,32.500 C76.709,32.500 78.500,34.291 78.500,36.500 L78.500,66.500 C78.500,68.709 76.709,70.500 74.500,70.500 L28.500,70.500 C26.290,70.500 24.500,68.709 24.500,66.500 L24.500,36.500 C24.500,34.291 26.290,32.500 28.500,32.500 Z"/>
<path fill-rule="evenodd"  fill="rgb(54, 51, 50)"
 d="M31.500,49.500 L45.500,49.500 C46.604,49.500 47.500,50.395 47.500,51.500 C47.500,52.604 46.604,53.500 45.500,53.500 L31.500,53.500 C30.395,53.500 29.500,52.604 29.500,51.500 C29.500,50.395 30.395,49.500 31.500,49.500 Z"/>
<path fill-rule="evenodd"  fill="rgb(54, 51, 50)"
 d="M52.500,49.500 L66.500,49.500 C67.604,49.500 68.500,50.395 68.500,51.500 C68.500,52.604 67.604,53.500 66.500,53.500 L52.500,53.500 C51.395,53.500 50.500,52.604 50.500,51.500 C50.500,50.395 51.395,49.500 52.500,49.500 Z"/>
<path fill-rule="evenodd"  fill="rgb(54, 51, 50)"
 d="M31.500,57.500 L73.500,57.500 C74.604,57.500 75.500,58.395 75.500,59.500 C75.500,60.604 74.604,61.500 73.500,61.500 L31.500,61.500 C30.395,61.500 29.500,60.604 29.500,59.500 C29.500,58.395 30.395,57.500 31.500,57.500 Z"/>
<path fill-rule="evenodd"  fill="rgb(54, 51, 50)"
 d="M73.500,39.500 C74.604,39.500 75.500,40.395 75.500,41.500 L75.500,59.500 C75.500,60.604 74.604,61.500 73.500,61.500 C72.395,61.500 71.500,60.604 71.500,59.500 L71.500,41.500 C71.500,40.395 72.395,39.500 73.500,39.500 Z"/>
<path fill-rule="evenodd"  fill="rgb(54, 51, 50)"
 d="M31.500,41.500 L37.500,41.500 C38.604,41.500 39.500,42.395 39.500,43.500 C39.500,44.604 38.604,45.500 37.500,45.500 L31.500,45.500 C30.395,45.500 29.500,44.604 29.500,43.500 C29.500,42.395 30.395,41.500 31.500,41.500 Z"/>
<path fill-rule="evenodd"  fill="rgb(54, 51, 50)"
 d="M46.500,41.500 L52.500,41.500 C53.604,41.500 54.500,42.395 54.500,43.500 C54.500,44.604 53.604,45.500 52.500,45.500 L46.500,45.500 C45.395,45.500 44.500,44.604 44.500,43.500 C44.500,42.395 45.395,41.500 46.500,41.500 Z"/>
<path fill-rule="evenodd"  fill="rgb(54, 51, 50)"
 d="M60.500,41.500 L66.500,41.500 C67.604,41.500 68.500,42.395 68.500,43.500 C68.500,44.604 67.604,45.500 66.500,45.500 L60.500,45.500 C59.395,45.500 58.500,44.604 58.500,43.500 C58.500,42.395 59.395,41.500 60.500,41.500 Z"/>
</svg>
