<svg 
 xmlns="http://www.w3.org/2000/svg"
 xmlns:xlink="http://www.w3.org/1999/xlink"
 width="103px" height="103px">
<path fill-rule="evenodd"  stroke-width="3px" stroke="rgb(207, 207, 207)" fill="rgb(240, 243, 246)"
 d="M51.500,1.500 C79.114,1.500 101.500,23.885 101.500,51.500 C101.500,79.114 79.114,101.500 51.500,101.500 C23.886,101.500 1.500,79.114 1.500,51.500 C1.500,23.885 23.886,1.500 51.500,1.500 Z"/>
<path fill-rule="evenodd"  stroke-width="4px" stroke="rgb(54, 51, 50)" fill-opacity="0" fill="rgb(245, 156, 110)"
 d="M51.500,25.500 C57.575,25.500 62.500,30.424 62.500,36.500 L62.500,50.500 C62.500,56.575 57.575,61.500 51.500,61.500 C45.425,61.500 40.500,56.575 40.500,50.500 L40.500,36.500 C40.500,30.424 45.425,25.500 51.500,25.500 Z"/>
<path fill-rule="evenodd"  fill="rgb(54, 51, 50)"
 d="M51.500,73.500 C52.604,73.500 53.500,74.395 53.500,75.500 L53.500,83.500 C53.500,84.604 52.604,85.500 51.500,85.500 C50.395,85.500 49.500,84.604 49.500,83.500 L49.500,75.500 C49.500,74.395 50.395,73.500 51.500,73.500 Z"/>
<path fill-rule="evenodd"  fill="rgb(54, 51, 50)"
 d="M27.500,47.500 C28.604,47.500 29.500,48.395 29.500,49.500 C29.500,50.604 28.604,51.500 27.500,51.500 C26.395,51.500 25.500,50.604 25.500,49.500 C25.500,48.395 26.395,47.500 27.500,47.500 Z"/>
<path fill-rule="evenodd"  fill="rgb(54, 51, 50)"
 d="M75.499,47.500 C76.604,47.500 77.499,48.395 77.499,49.500 C77.499,50.604 76.604,51.500 75.499,51.500 C74.395,51.500 73.499,50.604 73.499,49.500 C73.499,48.395 74.395,47.500 75.499,47.500 Z"/>
</svg>
